# xmcd
#
# Track frame offsets: 
#        150
#        21048
#        35549
#        52932
#        55699
#        74138
#        95079
#        114565
#        138713
#        153571
#        179650
#        201151
#        220927
#        225484
#
# Disc length: 3400 seconds
#
# Revision: 0
# Processed by: cddbd v1.5.2PL0 Copyright (c) Steve Scherf et al.
# Submitted via: ExactAudioCopyFreeDBPlugin 1.0
#
DISCID=d00d460e
DTITLE=Mavis Staples - Live in London
DYEAR=2019
DGENRE=Soul
TTITLE0=Love and Trust
TTITLE1=Who Told You That
TTITLE2=Slippery People
TTITLE3=What You Gonna Do Intro
TTITLE4=What You Gonna Do
TTITLE5=Take Us Back
TTITLE6=You Are Not Alone
TTITLE7=No Time for Cryin'
TTITLE8=Can You Get to That
TTITLE9=Let's Do It Again
TTITLE10=Dedicated
TTITLE11=We're Gonna Make It
TTITLE12=Encore - Happy Birthday
TTITLE13=Touch a Hand
EXTD=
EXTT0=
EXTT1=
EXTT2=
EXTT3=
EXTT4=
EXTT5=
EXTT6=
EXTT7=
EXTT8=
EXTT9=
EXTT10=
EXTT11=
EXTT12=
EXTT13=
PLAYORDER=
